<?xml version="1.0" encoding="UTF-8" standalone="no"?>
<svg
   xmlns:dc="http://purl.org/dc/elements/1.1/"
   xmlns:cc="http://creativecommons.org/ns#"
   xmlns:rdf="http://www.w3.org/1999/02/22-rdf-syntax-ns#"
   xmlns:svg="http://www.w3.org/2000/svg"
   xmlns="http://www.w3.org/2000/svg"
   xmlns:sodipodi="http://sodipodi.sourceforge.net/DTD/sodipodi-0.dtd"
   xmlns:inkscape="http://www.inkscape.org/namespaces/inkscape"
   viewBox="0 0 512 512"
   version="1.1"
   id="svg4"
   sodipodi:docname="reddit.svg"
   inkscape:version="0.92.3 (unknown)">
  <metadata
     id="metadata10">
    <rdf:RDF>
      <cc:Work
         rdf:about="">
        <dc:format>image/svg+xml</dc:format>
        <dc:type
           rdf:resource="http://purl.org/dc/dcmitype/StillImage" />
      </cc:Work>
    </rdf:RDF>
  </metadata>
  <defs
     id="defs8" />
  <sodipodi:namedview
     pagecolor="#ffffff"
     bordercolor="#666666"
     borderopacity="1"
     objecttolerance="10"
     gridtolerance="10"
     guidetolerance="10"
     inkscape:pageopacity="0"
     inkscape:pageshadow="2"
     inkscape:window-width="1366"
     inkscape:window-height="744"
     id="namedview6"
     showgrid="false"
     inkscape:zoom="1.1199341"
     inkscape:cx="251.53545"
     inkscape:cy="256"
     inkscape:window-x="0"
     inkscape:window-y="24"
     inkscape:window-maximized="1"
     inkscape:current-layer="g818" />
  <g
     id="g818">
    <path
       id="path2"
       d="m 201.5,305.5 c -13.8,0 -24.9,-11.1 -24.9,-24.6 0,-13.8 11.1,-24.9 24.9,-24.9 13.6,0 24.6,11.1 24.6,24.9 0,13.6 -11.1,24.6 -24.6,24.6 z M 504,256 C 504,393 393,504 256,504 119,504 8,393 8,256 8,119 119,8 256,8 393,8 504,119 504,256 Z M 371.7,214.8 c -9.4,0 -17.7,3.9 -23.8,10 -22.4,-15.5 -52.6,-25.5 -86.1,-26.6 l 17.4,-78.3 55.4,12.5 c 0,13.6 11.1,24.6 24.6,24.6 13.8,0 24.9,-11.3 24.9,-24.9 0,-13.6 -11.1,-24.9 -24.9,-24.9 -9.7,0 -18,5.8 -22.1,13.8 l -61.2,-13.6 c -3,-0.8 -6.1,1.4 -6.9,4.4 l -19.1,86.4 c -33.2,1.4 -63.1,11.3 -85.5,26.8 -6.1,-6.4 -14.7,-10.2 -24.1,-10.2 -34.9,0 -46.3,46.9 -14.4,62.8 -1.1,5 -1.7,10.2 -1.7,15.5 0,52.6 59.2,95.2 132,95.2 73.1,0 132.3,-42.6 132.3,-95.2 0,-5.3 -0.6,-10.8 -1.9,-15.8 31.3,-16 19.8,-62.5 -14.9,-62.5 z M 302.8,331 c -18.2,18.2 -76.1,17.9 -93.6,0 -2.2,-2.2 -6.1,-2.2 -8.3,0 -2.5,2.5 -2.5,6.4 0,8.6 22.8,22.8 87.3,22.8 110.2,0 2.5,-2.2 2.5,-6.1 0,-8.6 -2.2,-2.2 -6.1,-2.2 -8.3,0 z m 7.7,-75 c -13.6,0 -24.6,11.1 -24.6,24.9 0,13.6 11.1,24.6 24.6,24.6 13.8,0 24.9,-11.1 24.9,-24.6 0,-13.8 -11,-24.9 -24.9,-24.9 z"
       style="fill:#bc0000"
       inkscape:connector-curvature="0" />
  </g>
</svg>
