<?xml version="1.0" encoding="UTF-8" standalone="no"?>
<svg
   xmlns:dc="http://purl.org/dc/elements/1.1/"
   xmlns:cc="http://creativecommons.org/ns#"
   xmlns:rdf="http://www.w3.org/1999/02/22-rdf-syntax-ns#"
   xmlns:svg="http://www.w3.org/2000/svg"
   xmlns="http://www.w3.org/2000/svg"
   xmlns:sodipodi="http://sodipodi.sourceforge.net/DTD/sodipodi-0.dtd"
   xmlns:inkscape="http://www.inkscape.org/namespaces/inkscape"
   viewBox="0 0 384 512"
   version="1.1"
   id="svg4"
   sodipodi:docname="stack-overflow.svg"
   inkscape:version="0.92.3 (unknown)">
  <metadata
     id="metadata10">
    <rdf:RDF>
      <cc:Work
         rdf:about="">
        <dc:format>image/svg+xml</dc:format>
        <dc:type
           rdf:resource="http://purl.org/dc/dcmitype/StillImage" />
      </cc:Work>
    </rdf:RDF>
  </metadata>
  <defs
     id="defs8" />
  <sodipodi:namedview
     pagecolor="#ffffff"
     bordercolor="#666666"
     borderopacity="1"
     objecttolerance="10"
     gridtolerance="10"
     guidetolerance="10"
     inkscape:pageopacity="0"
     inkscape:pageshadow="2"
     inkscape:window-width="1366"
     inkscape:window-height="744"
     id="namedview6"
     showgrid="false"
     inkscape:zoom="1.1199341"
     inkscape:cx="192"
     inkscape:cy="256"
     inkscape:window-x="0"
     inkscape:window-y="24"
     inkscape:window-maximized="1"
     inkscape:current-layer="svg4" />
  <path
     d="m 294.22198,300.64666 -181.2,-84.5 16.7,-36.5 181.3,84.7 z m 48,-76 -153.5,-128.3 -25.5,30.8 153.5,128.3 z m 39.6,-31.7 -119.3,-160.3 -32,24 119.3,160.3 z m -90.6,118.7 -195.7,-41.3 -8.2,39.3 195.7,41 z m 31.6,129 h -279.6 v -120 h -40 v 160 h 359.5 v -160 h -40 v 120 z m -39.8,-80 h -200 v 39.7 h 200 z"
     id="path2"
     inkscape:connector-curvature="0"
     style="stroke-width:0.1;stroke-miterlimit:4;stroke-dasharray:none;stroke:none" />
  <path
     style="opacity:1;fill:#c0c0c0;fill-opacity:1;fill-rule:nonzero;stroke:none;stroke-width:0.1;stroke-linecap:round;stroke-miterlimit:4;stroke-dasharray:none;stroke-opacity:1"
     d="M 3.0603085,400.11562 V 320.64666 H 22.704322 42.348335 v 59.82495 59.82495 H 182.53516 322.72198 v -59.82495 -59.82495 h 19.64401 19.64402 v 79.46896 79.46897 H 182.53516 3.0603085 Z"
     id="path819"
     inkscape:connector-curvature="0" />
  <path
     style="opacity:1;fill-opacity:1;fill-rule:nonzero;stroke:none;stroke-width:0.1;stroke-linecap:round;stroke-miterlimit:4;stroke-dasharray:none;stroke-opacity:1"
     d="M 82.529271,380.02516 V 360.8276 h 99.559429 99.55943 v 19.19756 19.19756 H 182.0887 82.529271 Z"
     id="path821"
     inkscape:connector-curvature="0" />
  <path
     style="opacity:1;fill-opacity:1;fill-rule:nonzero;stroke:none;stroke-width:0.1;stroke-linecap:round;stroke-miterlimit:4;stroke-dasharray:none;stroke-opacity:1"
     d="M 82.529271,380.02516 V 360.8276 h 99.559429 99.55943 v 19.19756 19.19756 H 182.0887 82.529271 Z"
     id="path823"
     inkscape:connector-curvature="0" />
  <path
     style="opacity:1;fill-opacity:1;fill-rule:nonzero;stroke:none;stroke-width:0.1;stroke-linecap:round;stroke-miterlimit:4;stroke-dasharray:none;stroke-opacity:1;fill:#ffa500"
     d="M 82.529271,380.02516 V 360.8276 h 99.559429 99.55943 v 19.19756 19.19756 H 182.0887 82.529271 Z"
     id="path825"
     inkscape:connector-curvature="0" />
  <path
     style="opacity:1;fill-opacity:1;fill-rule:nonzero;stroke:none;stroke-width:0.1;stroke-linecap:round;stroke-miterlimit:4;stroke-dasharray:none;stroke-opacity:1;fill:#ffa500"
     d="m 183.3543,328.87468 -96.061555,-20.19369 3.896854,-18.74922 c 2.14327,-10.31208 4.089168,-18.94154 4.324218,-19.17659 0.23505,-0.23505 44.019573,8.7684 97.298933,20.00766 73.96907,15.60374 96.87157,20.73739 96.87157,21.714 0,0.70344 -1.67874,9.25837 -3.73053,19.01095 -2.96352,14.08619 -4.01914,17.71642 -5.13423,17.65628 -0.77204,-0.0416 -44.63141,-9.16286 -97.46526,-20.26939 z"
     id="path827"
     inkscape:connector-curvature="0" />
  <path
     style="opacity:1;fill:#ffa500;fill-opacity:1;fill-rule:nonzero;stroke:none;stroke-width:0.1;stroke-linecap:round;stroke-miterlimit:4;stroke-dasharray:none;stroke-opacity:1"
     d="m 204.12651,258.1422 c -49.26675,-22.98547 -89.75327,-41.96912 -89.97005,-42.18589 -0.40255,-0.40255 14.48987,-33.60274 15.62645,-34.83658 0.5355,-0.58133 177.876,81.51386 179.78539,83.22699 0.54108,0.48545 -14.22743,34.01548 -15.53465,35.26949 -0.18218,0.17476 -40.64039,-18.48854 -89.90714,-41.47401 z"
     id="path829"
     inkscape:connector-curvature="0" />
  <path
     style="opacity:1;fill:#ffa500;fill-opacity:1;fill-rule:nonzero;stroke:none;stroke-width:0.1;stroke-linecap:round;stroke-miterlimit:4;stroke-dasharray:none;stroke-opacity:1"
     d="m 285.66623,228.97326 c -16.69741,-14.01128 -50.92397,-42.66329 -76.05902,-63.67114 l -45.70008,-38.19608 12.06639,-14.62017 c 6.63651,-8.0411 12.34806,-14.725116 12.69233,-14.853374 0.46572,-0.173504 148.26273,122.687144 152.16853,126.494614 0.63595,0.61993 -22.75873,29.78012 -24.19641,30.15949 -0.33705,0.0889 -14.27433,-11.30206 -30.97174,-25.31334 z"
     id="path831"
     inkscape:connector-curvature="0" />
  <path
     style="opacity:1;fill:#ffa500;fill-opacity:1;fill-rule:nonzero;stroke:none;stroke-width:0.1;stroke-linecap:round;stroke-miterlimit:4;stroke-dasharray:none;stroke-opacity:1"
     d="M 290.59784,136.60038 C 240.36795,69.122945 231.59739,56.90529 232.6441,55.869061 c 1.49527,-1.480298 29.73505,-22.67527 29.91359,-22.451226 4.49272,5.637728 118.19212,159.014935 118.16896,159.406515 -0.0299,0.50571 -26.95947,20.92812 -29.86618,22.64943 -0.71107,0.42109 -21.132,-26.30637 -60.26263,-78.8734 z"
     id="path833"
     inkscape:connector-curvature="0" />
</svg>
