<?xml version="1.0" standalone="no"?>
<!DOCTYPE svg PUBLIC "-//W3C//DTD SVG 20010904//EN"
 "http://www.w3.org/TR/2001/REC-SVG-20010904/DTD/svg10.dtd">
<svg version="1.0" xmlns="http://www.w3.org/2000/svg"
 width="700.000000pt" height="700.000000pt" viewBox="0 0 700.000000 700.000000"
 preserveAspectRatio="xMidYMid meet">
<metadata>
Created by potrace 1.11, written by Peter Selinger 2001-2013
</metadata>
<g transform="translate(0.000000,700.000000) scale(0.100000,-0.100000)"
fill="#000000" stroke="none">
<path d="M3435 6963 c-111 -67 -160 -94 -177 -100 -10 -3 -18 -9 -18 -14 0 -5
-4 -9 -8 -9 -5 0 -102 -54 -217 -120 -115 -66 -210 -120 -212 -120 -2 0 -16
-9 -31 -19 -15 -10 -295 -173 -622 -362 -681 -392 -677 -389 -1105 -637 -176
-102 -338 -195 -360 -207 -22 -13 -78 -45 -125 -72 l-85 -49 -3 -1749 -2
-1749 27 -23 c16 -12 31 -22 35 -23 4 0 103 -56 220 -123 117 -68 233 -135
258 -149 25 -14 158 -91 295 -170 138 -80 264 -153 280 -162 17 -9 46 -26 65
-38 19 -12 53 -31 75 -44 22 -12 155 -88 295 -169 140 -81 274 -158 297 -171
23 -13 93 -54 155 -90 62 -37 131 -77 153 -89 22 -12 213 -122 425 -245 212
-122 400 -231 418 -241 l32 -19 228 131 c397 230 465 269 471 269 2 0 12 6 20
14 9 7 41 27 71 43 30 17 98 55 150 85 52 31 114 66 136 79 56 32 398 230 432
250 15 9 47 27 72 41 25 14 245 141 490 283 245 142 465 269 490 283 25 14 78
45 118 69 41 24 75 43 77 43 2 0 40 23 85 50 45 28 83 50 86 50 2 0 26 14 54
31 l50 31 -2 1751 -3 1751 -274 158 c-150 87 -277 158 -282 158 -5 0 -9 5 -9
10 0 6 -4 10 -10 10 -5 0 -55 27 -111 60 -55 33 -102 60 -104 60 -2 0 -36 19
-77 43 -40 24 -93 55 -118 69 -25 14 -157 90 -295 170 -137 80 -412 238 -610
353 -334 192 -497 286 -685 396 -41 24 -91 53 -111 64 -125 71 -284 163 -307
177 -15 9 -29 17 -32 17 -3 0 -32 -16 -65 -36z"/>
</g>
</svg>
